<svg xmlns="http://www.w3.org/2000/svg" version="1.2" viewBox="0 0 2020 580">
  <g fill="#3b6076">
    <path d="M854 250c22-10 37-31 37-63 0-45-31-73-93-73H681v287h118c72 0 102-32 102-83 1-37-16-60-47-68zm-111-82h52c25 0 35 8 35 30s-10 32-33 32h-54zm57 179h-57v-70h56c28 0 38 10 38 35 1 27-11 35-36 35zm227-183c-29 0-56 5-79 15l5 47a155 155 0 0164-13c32 0 44 11 44 35v13c-13-4-27-6-45-6-53 0-82 29-82 72 0 52 27 77 71 77 26 0 49-10 62-26h1l4 21h46V257c1-64-23-93-91-93zm33 166c0 16-19 27-39 27-19 0-33-8-33-30 0-20 13-30 39-30 16 0 27 2 33 5zm158-123h-1l-5-39-47 2v231h60V284c0-39 22-61 54-61 9 0 17 1 25 4l4-59a96 96 0 00-25-3c-28 0-51 13-65 42zm206-43c-70 0-102 43-102 117 0 81 36 123 116 123 29 0 56-5 75-15l-6-48a174 174 0 01-63 12c-39 0-58-14-61-53h135l1-28c0-74-36-108-95-108zm-42 97c3-34 14-48 42-48 26 0 41 13 42 47zm209 78c-24 0-35 12-35 33 0 24 10 33 35 33 24 0 34-12 34-33s-10-33-34-33zm135-226h-65v287h65zm166 0h-108v287h108c85 0 128-41 128-145 1-99-37-142-128-142zm0 230h-42V171h42c46 0 62 16 62 84 0 74-18 88-62 88zM541 111l-82-34L272 0h-2L0 111l13 83 75-34 182-80 95 43 87 37-22 200-79 58-7 104 157-122zm0 0"/>
    <path d="M274 580l4-107-19-86-56 137zm0 0"/>
    <path d="M340 219l-6-23-60-31v-26l-9-6-18 1 11 20-13-15-11-7-21 8-8 22-81 40-65 94 17-72-55 26 21 150 127 98 90-111 48-45 42-8 52-36 5-48zm-25 25l-15-11v-9l20-4 3 12zm0 0"/>
  </g>
</svg>