<svg width="2400" height="314" viewBox="0 0 2400 314" fill="none" xmlns="http://www.w3.org/2000/svg">
<path d="M2345.69 200.173C2330.17 200.173 2317.23 205.408 2306.89 215.857C2296.55 226.315 2291.38 239.861 2291.38 256.492C2291.38 272.654 2296.55 286.199 2306.89 297.125C2317.23 308.052 2330.17 313.522 2345.69 313.522C2361.67 313.522 2374.72 308.178 2384.83 297.48C2394.94 286.787 2400 273.133 2400 256.492C2400 239.861 2394.94 226.315 2384.83 215.857C2374.72 205.408 2361.67 200.173 2345.69 200.173Z" fill="#00BEBE"/>
<path d="M153.206 312.283C210.82 312.283 244.96 291.58 275.687 258.367L233.863 215.666C210.392 237.232 189.481 251.035 155.341 251.035C104.129 251.035 68.7082 207.9 68.7082 156.141V155.28C68.7082 103.519 104.983 61.2493 155.341 61.2493C185.214 61.2493 208.685 74.1894 231.729 95.3244L273.553 46.5843C245.812 18.9793 212.098 0 155.767 0C64.0148 0 0 70.3073 0 156.141V157.004C0 243.702 65.2951 312.283 153.206 312.283ZM497.183 312.283C589.363 312.283 656.363 241.975 656.363 156.141V155.28C656.363 69.4442 590.215 0 498.035 0C405.857 0 338.855 70.3073 338.855 156.141V157.004C338.855 242.84 405.003 312.283 497.183 312.283ZM498.035 251.035C445.118 251.035 407.564 207.9 407.564 156.141V155.28C407.564 103.519 444.264 61.2493 497.183 61.2493C550.101 61.2493 587.655 104.382 587.655 156.141V157.004C587.655 208.765 550.954 251.035 498.035 251.035ZM740.435 307.107H805.302V115.165L949.972 307.107H1005.88V5.17756H941.01V191.08L801.035 5.17756H740.435V307.107ZM1243.88 312.283C1301.49 312.283 1335.63 291.58 1366.36 258.367L1324.54 215.666C1301.06 237.232 1280.15 251.035 1246.01 251.035C1194.8 251.035 1159.38 207.9 1159.38 156.141V155.28C1159.38 103.519 1195.66 61.2493 1246.01 61.2493C1275.89 61.2493 1299.36 74.1894 1322.4 95.3244L1364.22 46.5843C1336.49 18.9793 1302.77 0 1246.44 0C1154.69 0 1090.67 70.3073 1090.67 156.141V157.004C1090.67 243.702 1155.97 312.283 1243.88 312.283ZM1455.75 307.107H1521.47V5.17756H1455.75V307.107ZM1737.17 311.421C1801.61 311.421 1846.85 277.777 1846.85 217.821V216.96C1846.85 164.338 1812.7 142.34 1752.09 126.381C1700.46 113.01 1687.66 106.538 1687.66 86.6971V85.8355C1687.66 71.1705 1700.88 59.5244 1726.06 59.5244C1751.25 59.5244 1777.28 70.7382 1803.74 89.2852L1837.87 39.2526C1807.58 14.6649 1770.45 0.863179 1726.92 0.863179C1665.89 0.863179 1622.37 37.0954 1622.37 91.8732V92.7363C1622.37 152.692 1661.21 169.514 1721.38 185.04C1771.3 197.98 1781.55 206.608 1781.55 223.43V224.291C1781.55 241.975 1765.33 252.76 1738.45 252.76C1704.3 252.76 1676.14 238.526 1649.25 216.097L1610.42 263.112C1646.27 295.46 1691.93 311.421 1737.17 311.421ZM2073.01 312.283C2165.19 312.283 2232.19 241.975 2232.19 156.141V155.28C2232.19 69.4442 2166.05 0 2073.86 0C1981.69 0 1914.69 70.3073 1914.69 156.141V157.004C1914.69 242.84 1980.83 312.283 2073.01 312.283ZM2073.86 251.035C2020.95 251.035 1983.4 207.9 1983.4 156.141V155.28C1983.4 103.519 2020.1 61.2493 2073.01 61.2493C2125.93 61.2493 2163.48 104.382 2163.48 156.141V157.004C2163.48 208.765 2126.78 251.035 2073.86 251.035Z" fill="black"/>
</svg>
